<?xml version="1.0" encoding="UTF-8"?>
<svg xmlns="http://www.w3.org/2000/svg" xmlns:xlink="http://www.w3.org/1999/xlink" width="64" height="64" viewBox="0 0 64 64">
<path fill-rule="nonzero" fill="rgb(255%, 255%, 255%)" fill-opacity="1" d="M 45.332031 8 L 56 8 L 56 13.332031 L 45.332031 13.332031 L 45.332031 8 M 45.332031 18.667969 L 56 18.667969 L 56 24 L 45.332031 24 L 45.332031 18.667969 M 45.332031 29.332031 L 56 29.332031 L 56 34.667969 L 47.332031 34.667969 L 45.332031 32.265625 L 45.332031 29.332031 M 56 40 L 56 45.332031 L 50.667969 45.332031 C 50.667969 43.492188 50.398438 41.679688 49.894531 40 L 56 40 M 18.667969 8 L 18.667969 13.332031 L 8 13.332031 L 8 8 L 18.667969 8 M 18.667969 18.667969 L 18.667969 24 L 8 24 L 8 18.667969 L 18.667969 18.667969 M 18.667969 29.332031 L 18.667969 32.265625 L 16.667969 34.667969 L 8 34.667969 L 8 29.332031 L 18.667969 29.332031 M 8 40 L 14.105469 40 C 13.601562 41.679688 13.332031 43.492188 13.332031 45.332031 L 8 45.332031 L 8 40 M 40 34.667969 L 40 13.332031 C 40 8.90625 36.425781 5.332031 32 5.332031 C 27.574219 5.332031 24 8.90625 24 13.332031 L 24 34.667969 C 18.105469 39.09375 16.90625 47.441406 21.332031 53.332031 C 25.761719 59.226562 34.105469 60.425781 40 56 C 45.894531 51.574219 47.09375 43.226562 42.667969 37.332031 C 41.921875 36.320312 41.011719 35.414062 40 34.667969 M 32 10.667969 C 33.464844 10.667969 34.667969 11.867188 34.667969 13.332031 L 34.667969 21.332031 L 29.332031 21.332031 L 29.332031 13.332031 C 29.332031 11.867188 30.535156 10.667969 32 10.667969 Z M 32 10.667969 "/>
</svg>
